<svg width="52" height="52" viewBox="0 0 52 52" fill="none" xmlns="http://www.w3.org/2000/svg">
<path d="M43.3333 6.5H8.66667C6.27343 6.5 4.33333 8.4401 4.33333 10.8333V32.5C4.33333 34.8932 6.27343 36.8333 8.66667 36.8333H43.3333C45.7266 36.8333 47.6667 34.8932 47.6667 32.5V10.8333C47.6667 8.4401 45.7266 6.5 43.3333 6.5Z" stroke="black" stroke-width="2" stroke-linecap="round" stroke-linejoin="round"/>
<path d="M17.3333 45.5H34.6667" stroke="black" stroke-width="2" stroke-linecap="round" stroke-linejoin="round"/>
<path d="M26 36.8333V45.5" stroke="black" stroke-width="2" stroke-linecap="round" stroke-linejoin="round"/>
<path d="M26 18C30.9706 18 35 16.6569 35 15C35 13.3431 30.9706 12 26 12C21.0294 12 17 13.3431 17 15C17 16.6569 21.0294 18 26 18Z" stroke="black" stroke-width="2" stroke-linecap="round" stroke-linejoin="round"/>
<path d="M17 15V29C17 29.7956 17.9482 30.5587 19.636 31.1213C21.3239 31.6839 23.6131 32 26 32C28.3869 32 30.6761 31.6839 32.364 31.1213C34.0518 30.5587 35 29.7956 35 29V15" stroke="black" stroke-width="2" stroke-linecap="round" stroke-linejoin="round"/>
<path d="M17 22C17 22.7956 17.9482 23.5587 19.636 24.1213C21.3239 24.6839 23.6131 25 26 25C28.3869 25 30.6761 24.6839 32.364 24.1213C34.0518 23.5587 35 22.7956 35 22" stroke="black" stroke-width="2" stroke-linecap="round" stroke-linejoin="round"/>
</svg>
