<svg width="1200" height="630" viewBox="0 0 1200 630" fill="none" xmlns="http://www.w3.org/2000/svg">
<rect width="1200" height="630" fill="#D9D9D9"/>
<path d="M175.737 508L169.569 490.96H172.857L177.633 504.52L182.385 490.96H185.673L179.481 508H175.737ZM187.2 508V495.184H190.272V508H187.2ZM187.152 493.48V490.744H190.344V493.48H187.152ZM198.618 508.288C197.354 508.288 196.29 508.104 195.426 507.736C194.578 507.368 193.922 506.856 193.458 506.2C192.994 505.544 192.73 504.8 192.666 503.968L195.81 503.824C195.922 504.496 196.202 505.016 196.65 505.384C197.098 505.752 197.762 505.936 198.642 505.936C199.362 505.936 199.922 505.824 200.322 505.6C200.738 505.36 200.946 504.992 200.946 504.496C200.946 504.208 200.874 503.968 200.73 503.776C200.586 503.584 200.314 503.416 199.914 503.272C199.514 503.128 198.922 502.984 198.138 502.84C196.826 502.616 195.794 502.344 195.042 502.024C194.29 501.688 193.754 501.272 193.434 500.776C193.13 500.28 192.978 499.664 192.978 498.928C192.978 497.728 193.434 496.76 194.346 496.024C195.274 495.272 196.626 494.896 198.402 494.896C199.554 494.896 200.522 495.088 201.306 495.472C202.09 495.84 202.698 496.352 203.13 497.008C203.578 497.648 203.858 498.384 203.97 499.216L200.874 499.36C200.794 498.928 200.65 498.552 200.442 498.232C200.234 497.912 199.954 497.672 199.602 497.512C199.25 497.336 198.834 497.248 198.354 497.248C197.634 497.248 197.09 497.392 196.722 497.68C196.354 497.968 196.17 498.352 196.17 498.832C196.17 499.168 196.25 499.448 196.41 499.672C196.586 499.896 196.866 500.08 197.25 500.224C197.634 500.352 198.146 500.472 198.786 500.584C200.13 500.792 201.186 501.064 201.954 501.4C202.738 501.72 203.29 502.136 203.61 502.648C203.946 503.144 204.114 503.744 204.114 504.448C204.114 505.264 203.882 505.96 203.418 506.536C202.97 507.112 202.33 507.552 201.498 507.856C200.682 508.144 199.722 508.288 198.618 508.288ZM210.736 508.288C209.44 508.288 208.408 507.864 207.64 507.016C206.888 506.152 206.512 504.96 206.512 503.44V495.184H209.584V502.672C209.584 503.744 209.76 504.536 210.112 505.048C210.48 505.544 211.032 505.792 211.768 505.792C212.6 505.792 213.24 505.52 213.688 504.976C214.152 504.416 214.384 503.608 214.384 502.552V495.184H217.456V508H214.648L214.576 504.472L214.96 504.592C214.768 505.808 214.312 506.728 213.592 507.352C212.872 507.976 211.92 508.288 210.736 508.288ZM224.552 508.288C223.208 508.288 222.128 507.984 221.312 507.376C220.496 506.752 220.088 505.888 220.088 504.784C220.088 503.68 220.432 502.816 221.12 502.192C221.808 501.568 222.856 501.12 224.264 500.848L228.512 500.008C228.512 499.096 228.304 498.416 227.888 497.968C227.472 497.504 226.856 497.272 226.04 497.272C225.304 497.272 224.72 497.448 224.288 497.8C223.872 498.136 223.584 498.624 223.424 499.264L220.304 499.12C220.56 497.76 221.184 496.72 222.176 496C223.168 495.264 224.456 494.896 226.04 494.896C227.864 494.896 229.24 495.36 230.168 496.288C231.112 497.2 231.584 498.512 231.584 500.224V504.88C231.584 505.216 231.64 505.448 231.752 505.576C231.88 505.704 232.064 505.768 232.304 505.768H232.712V508C232.616 508.032 232.456 508.056 232.232 508.072C232.024 508.088 231.808 508.096 231.584 508.096C231.056 508.096 230.584 508.016 230.168 507.856C229.752 507.68 229.432 507.384 229.208 506.968C228.984 506.536 228.872 505.952 228.872 505.216L229.136 505.408C229.008 505.968 228.728 506.472 228.296 506.92C227.88 507.352 227.352 507.688 226.712 507.928C226.072 508.168 225.352 508.288 224.552 508.288ZM225.176 506.056C225.864 506.056 226.456 505.92 226.952 505.648C227.448 505.376 227.832 505 228.104 504.52C228.376 504.04 228.512 503.472 228.512 502.816V502.096L225.2 502.768C224.512 502.912 224.016 503.128 223.712 503.416C223.424 503.688 223.28 504.048 223.28 504.496C223.28 504.992 223.44 505.376 223.76 505.648C224.096 505.92 224.568 506.056 225.176 506.056ZM237.592 508C236.664 508 235.92 507.76 235.36 507.28C234.8 506.8 234.52 506.032 234.52 504.976V490.96H237.592V504.664C237.592 504.984 237.672 505.224 237.832 505.384C238.008 505.544 238.248 505.624 238.552 505.624H239.488V508H237.592ZM241.457 508V495.184H244.529V508H241.457ZM241.409 493.48V490.744H244.601V493.48H241.409ZM247.567 508V505.456L254.983 497.56H247.855V495.184H258.607V497.728L251.119 505.624H258.775V508H247.567ZM266.619 508.288C265.339 508.288 264.227 508.016 263.283 507.472C262.339 506.912 261.611 506.128 261.099 505.12C260.587 504.112 260.331 502.936 260.331 501.592C260.331 500.248 260.587 499.08 261.099 498.088C261.611 497.08 262.331 496.296 263.259 495.736C264.203 495.176 265.299 494.896 266.547 494.896C267.763 494.896 268.827 495.168 269.739 495.712C270.667 496.256 271.379 497.04 271.875 498.064C272.371 499.088 272.619 500.32 272.619 501.76V502.456H263.523C263.587 503.576 263.891 504.424 264.435 505C264.995 505.56 265.731 505.84 266.643 505.84C267.331 505.84 267.899 505.688 268.347 505.384C268.811 505.064 269.131 504.624 269.307 504.064L272.451 504.256C272.099 505.504 271.403 506.488 270.363 507.208C269.339 507.928 268.091 508.288 266.619 508.288ZM263.523 500.392H269.451C269.387 499.352 269.091 498.584 268.563 498.088C268.035 497.576 267.363 497.32 266.547 497.32C265.731 497.32 265.051 497.584 264.507 498.112C263.979 498.64 263.651 499.4 263.523 500.392ZM281.838 511.6V509.224H283.47C283.886 509.224 284.19 509.16 284.382 509.032C284.59 508.904 284.75 508.688 284.862 508.384L285.222 507.496H284.334L279.75 495.184H282.942L286.158 504.616L289.23 495.184H292.422L287.406 509.344C287.118 510.144 286.71 510.72 286.182 511.072C285.67 511.424 284.95 511.6 284.022 511.6H281.838ZM299.502 508.288C298.238 508.288 297.126 508.016 296.166 507.472C295.222 506.912 294.486 506.128 293.958 505.12C293.446 504.112 293.19 502.936 293.19 501.592C293.19 500.232 293.446 499.056 293.958 498.064C294.486 497.056 295.222 496.28 296.166 495.736C297.126 495.176 298.238 494.896 299.502 494.896C300.766 494.896 301.87 495.176 302.814 495.736C303.758 496.28 304.486 497.056 304.998 498.064C305.526 499.056 305.79 500.232 305.79 501.592C305.79 502.936 305.526 504.112 304.998 505.12C304.486 506.128 303.758 506.912 302.814 507.472C301.87 508.016 300.766 508.288 299.502 508.288ZM299.502 505.792C300.494 505.792 301.254 505.424 301.782 504.688C302.326 503.952 302.598 502.92 302.598 501.592C302.598 500.28 302.326 499.256 301.782 498.52C301.254 497.768 300.494 497.392 299.502 497.392C298.51 497.392 297.742 497.768 297.198 498.52C296.654 499.256 296.382 500.28 296.382 501.592C296.382 502.92 296.654 503.952 297.198 504.688C297.742 505.424 298.51 505.792 299.502 505.792ZM312.384 508.288C311.088 508.288 310.056 507.864 309.288 507.016C308.536 506.152 308.16 504.96 308.16 503.44V495.184H311.232V502.672C311.232 503.744 311.408 504.536 311.76 505.048C312.128 505.544 312.68 505.792 313.416 505.792C314.248 505.792 314.888 505.52 315.336 504.976C315.8 504.416 316.032 503.608 316.032 502.552V495.184H319.104V508H316.296L316.224 504.472L316.608 504.592C316.416 505.808 315.96 506.728 315.24 507.352C314.52 507.976 313.568 508.288 312.384 508.288ZM322.481 508V495.184H325.361L325.481 498.736L325.217 498.688C325.409 497.456 325.769 496.568 326.297 496.024C326.841 495.464 327.577 495.184 328.505 495.184H329.681V497.824H328.481C327.825 497.824 327.281 497.92 326.849 498.112C326.417 498.304 326.089 498.608 325.865 499.024C325.657 499.424 325.553 499.952 325.553 500.608V508H322.481ZM336.749 508L342.893 490.96H346.709L352.853 508H349.589L348.173 503.968H341.429L340.013 508H336.749ZM342.341 501.304H347.261L344.813 494.104L342.341 501.304ZM354.52 511.6V495.184H357.472L357.544 497.92L357.232 497.776C357.552 496.832 358.072 496.12 358.792 495.64C359.528 495.144 360.384 494.896 361.36 494.896C362.576 494.896 363.584 495.2 364.384 495.808C365.2 496.416 365.808 497.224 366.208 498.232C366.608 499.24 366.808 500.36 366.808 501.592C366.808 502.824 366.6 503.944 366.184 504.952C365.784 505.96 365.176 506.768 364.36 507.376C363.56 507.984 362.552 508.288 361.336 508.288C360.696 508.288 360.096 508.176 359.536 507.952C358.992 507.728 358.52 507.408 358.12 506.992C357.736 506.576 357.464 506.088 357.304 505.528L357.592 505.288V511.6H354.52ZM360.616 505.792C361.544 505.792 362.272 505.424 362.8 504.688C363.344 503.936 363.616 502.904 363.616 501.592C363.616 500.28 363.344 499.256 362.8 498.52C362.272 497.768 361.544 497.392 360.616 497.392C359.992 497.392 359.456 497.552 359.008 497.872C358.56 498.176 358.208 498.64 357.952 499.264C357.712 499.888 357.592 500.664 357.592 501.592C357.592 502.52 357.712 503.296 357.952 503.92C358.192 504.544 358.536 505.016 358.984 505.336C359.448 505.64 359.992 505.792 360.616 505.792ZM369.192 511.6V495.184H372.144L372.216 497.92L371.904 497.776C372.224 496.832 372.744 496.12 373.464 495.64C374.2 495.144 375.056 494.896 376.032 494.896C377.248 494.896 378.256 495.2 379.056 495.808C379.872 496.416 380.48 497.224 380.88 498.232C381.28 499.24 381.48 500.36 381.48 501.592C381.48 502.824 381.272 503.944 380.856 504.952C380.456 505.96 379.848 506.768 379.032 507.376C378.232 507.984 377.224 508.288 376.008 508.288C375.368 508.288 374.768 508.176 374.208 507.952C373.664 507.728 373.192 507.408 372.792 506.992C372.408 506.576 372.136 506.088 371.976 505.528L372.264 505.288V511.6H369.192ZM375.288 505.792C376.216 505.792 376.944 505.424 377.472 504.688C378.016 503.936 378.288 502.904 378.288 501.592C378.288 500.28 378.016 499.256 377.472 498.52C376.944 497.768 376.216 497.392 375.288 497.392C374.664 497.392 374.128 497.552 373.68 497.872C373.232 498.176 372.88 498.64 372.624 499.264C372.384 499.888 372.264 500.664 372.264 501.592C372.264 502.52 372.384 503.296 372.624 503.92C372.864 504.544 373.208 505.016 373.656 505.336C374.12 505.64 374.664 505.792 375.288 505.792ZM386.106 508L382.242 495.184H385.386L387.882 504.52L390.45 495.184H393.138L395.73 504.52L398.226 495.184H401.37L397.506 508H394.338L391.794 499.408L389.274 508H386.106ZM403.012 508V495.184H405.892L406.012 498.736L405.748 498.688C405.94 497.456 406.3 496.568 406.828 496.024C407.372 495.464 408.108 495.184 409.036 495.184H410.212V497.824H409.012C408.356 497.824 407.812 497.92 407.38 498.112C406.948 498.304 406.62 498.608 406.396 499.024C406.188 499.424 406.084 499.952 406.084 500.608V508H403.012ZM412.2 508V495.184H415.272V508H412.2ZM412.152 493.48V490.744H415.344V493.48H412.152ZM422.984 508C421.704 508 420.76 507.704 420.152 507.112C419.56 506.52 419.264 505.592 419.264 504.328V492.184H422.336V504.04C422.336 504.632 422.464 505.048 422.72 505.288C422.976 505.512 423.376 505.624 423.92 505.624H425.72V508H422.984ZM417.248 497.56V495.184H425.72V497.56H417.248ZM433.306 508.288C432.026 508.288 430.914 508.016 429.97 507.472C429.026 506.912 428.298 506.128 427.786 505.12C427.274 504.112 427.018 502.936 427.018 501.592C427.018 500.248 427.274 499.08 427.786 498.088C428.298 497.08 429.018 496.296 429.946 495.736C430.89 495.176 431.986 494.896 433.234 494.896C434.45 494.896 435.514 495.168 436.426 495.712C437.354 496.256 438.066 497.04 438.562 498.064C439.058 499.088 439.306 500.32 439.306 501.76V502.456H430.21C430.274 503.576 430.578 504.424 431.122 505C431.682 505.56 432.418 505.84 433.33 505.84C434.018 505.84 434.586 505.688 435.034 505.384C435.498 505.064 435.818 504.624 435.994 504.064L439.138 504.256C438.786 505.504 438.09 506.488 437.05 507.208C436.026 507.928 434.778 508.288 433.306 508.288ZM430.21 500.392H436.138C436.074 499.352 435.778 498.584 435.25 498.088C434.722 497.576 434.05 497.32 433.234 497.32C432.418 497.32 431.738 497.584 431.194 498.112C430.666 498.64 430.338 499.4 430.21 500.392ZM452.174 508.288C451.086 508.288 450.142 508.016 449.342 507.472C448.558 506.928 447.95 506.152 447.518 505.144C447.086 504.136 446.87 502.952 446.87 501.592C446.87 500.232 447.086 499.048 447.518 498.04C447.95 497.032 448.566 496.256 449.366 495.712C450.166 495.168 451.102 494.896 452.174 494.896C453.07 494.896 453.854 495.08 454.526 495.448C455.214 495.816 455.734 496.336 456.086 497.008V490.96H459.158V508H456.23L456.158 506.104C455.806 506.792 455.278 507.328 454.574 507.712C453.87 508.096 453.07 508.288 452.174 508.288ZM453.11 505.792C453.75 505.792 454.286 505.632 454.718 505.312C455.166 504.992 455.502 504.52 455.726 503.896C455.966 503.256 456.086 502.488 456.086 501.592C456.086 500.68 455.966 499.912 455.726 499.288C455.502 498.664 455.166 498.192 454.718 497.872C454.286 497.552 453.75 497.392 453.11 497.392C452.182 497.392 451.438 497.768 450.878 498.52C450.334 499.256 450.062 500.28 450.062 501.592C450.062 502.872 450.334 503.896 450.878 504.664C451.438 505.416 452.182 505.792 453.11 505.792ZM466.005 508.288C464.661 508.288 463.581 507.984 462.765 507.376C461.949 506.752 461.541 505.888 461.541 504.784C461.541 503.68 461.885 502.816 462.573 502.192C463.261 501.568 464.309 501.12 465.717 500.848L469.965 500.008C469.965 499.096 469.757 498.416 469.341 497.968C468.925 497.504 468.309 497.272 467.493 497.272C466.757 497.272 466.173 497.448 465.741 497.8C465.325 498.136 465.037 498.624 464.877 499.264L461.757 499.12C462.013 497.76 462.637 496.72 463.629 496C464.621 495.264 465.909 494.896 467.493 494.896C469.317 494.896 470.693 495.36 471.621 496.288C472.565 497.2 473.037 498.512 473.037 500.224V504.88C473.037 505.216 473.093 505.448 473.205 505.576C473.333 505.704 473.517 505.768 473.757 505.768H474.165V508C474.069 508.032 473.909 508.056 473.685 508.072C473.477 508.088 473.261 508.096 473.037 508.096C472.509 508.096 472.037 508.016 471.621 507.856C471.205 507.68 470.885 507.384 470.661 506.968C470.437 506.536 470.325 505.952 470.325 505.216L470.589 505.408C470.461 505.968 470.181 506.472 469.749 506.92C469.333 507.352 468.805 507.688 468.165 507.928C467.525 508.168 466.805 508.288 466.005 508.288ZM466.629 506.056C467.317 506.056 467.909 505.92 468.405 505.648C468.901 505.376 469.285 505 469.557 504.52C469.829 504.04 469.965 503.472 469.965 502.816V502.096L466.653 502.768C465.965 502.912 465.469 503.128 465.165 503.416C464.877 503.688 464.733 504.048 464.733 504.496C464.733 504.992 464.893 505.376 465.213 505.648C465.549 505.92 466.021 506.056 466.629 506.056ZM480.64 508C479.36 508 478.416 507.704 477.808 507.112C477.216 506.52 476.92 505.592 476.92 504.328V492.184H479.992V504.04C479.992 504.632 480.12 505.048 480.376 505.288C480.632 505.512 481.032 505.624 481.576 505.624H483.376V508H480.64ZM474.904 497.56V495.184H483.376V497.56H474.904ZM489.279 508.288C487.935 508.288 486.855 507.984 486.039 507.376C485.223 506.752 484.815 505.888 484.815 504.784C484.815 503.68 485.159 502.816 485.847 502.192C486.535 501.568 487.583 501.12 488.991 500.848L493.239 500.008C493.239 499.096 493.031 498.416 492.615 497.968C492.199 497.504 491.583 497.272 490.767 497.272C490.031 497.272 489.447 497.448 489.015 497.8C488.599 498.136 488.311 498.624 488.151 499.264L485.031 499.12C485.287 497.76 485.911 496.72 486.903 496C487.895 495.264 489.183 494.896 490.767 494.896C492.591 494.896 493.967 495.36 494.895 496.288C495.839 497.2 496.311 498.512 496.311 500.224V504.88C496.311 505.216 496.367 505.448 496.479 505.576C496.607 505.704 496.791 505.768 497.031 505.768H497.439V508C497.343 508.032 497.183 508.056 496.959 508.072C496.751 508.088 496.535 508.096 496.311 508.096C495.783 508.096 495.311 508.016 494.895 507.856C494.479 507.68 494.159 507.384 493.935 506.968C493.711 506.536 493.599 505.952 493.599 505.216L493.863 505.408C493.735 505.968 493.455 506.472 493.023 506.92C492.607 507.352 492.079 507.688 491.439 507.928C490.799 508.168 490.079 508.288 489.279 508.288ZM489.903 506.056C490.591 506.056 491.183 505.92 491.679 505.648C492.175 505.376 492.559 505 492.831 504.52C493.103 504.04 493.239 503.472 493.239 502.816V502.096L489.927 502.768C489.239 502.912 488.743 503.128 488.439 503.416C488.151 503.688 488.007 504.048 488.007 504.496C488.007 504.992 488.167 505.376 488.487 505.648C488.823 505.92 489.295 506.056 489.903 506.056ZM506.181 508.288C505.285 508.288 504.501 508.096 503.829 507.712C503.173 507.328 502.661 506.792 502.293 506.104L502.221 508H499.293V490.96H502.365V497.008C502.717 496.416 503.221 495.92 503.877 495.52C504.533 495.104 505.301 494.896 506.181 494.896C507.285 494.896 508.237 495.176 509.037 495.736C509.853 496.28 510.477 497.056 510.909 498.064C511.357 499.056 511.581 500.232 511.581 501.592C511.581 502.952 511.357 504.136 510.909 505.144C510.477 506.136 509.853 506.912 509.037 507.472C508.237 508.016 507.285 508.288 506.181 508.288ZM505.485 505.792C506.365 505.792 507.069 505.424 507.597 504.688C508.125 503.936 508.389 502.904 508.389 501.592C508.389 500.264 508.125 499.232 507.597 498.496C507.085 497.76 506.389 497.392 505.509 497.392C504.853 497.392 504.285 497.56 503.805 497.896C503.341 498.216 502.981 498.688 502.725 499.312C502.485 499.936 502.365 500.696 502.365 501.592C502.365 502.456 502.485 503.208 502.725 503.848C502.981 504.472 503.341 504.952 503.805 505.288C504.269 505.624 504.829 505.792 505.485 505.792ZM517.873 508.288C516.529 508.288 515.449 507.984 514.633 507.376C513.817 506.752 513.409 505.888 513.409 504.784C513.409 503.68 513.753 502.816 514.441 502.192C515.129 501.568 516.177 501.12 517.585 500.848L521.833 500.008C521.833 499.096 521.625 498.416 521.209 497.968C520.793 497.504 520.177 497.272 519.361 497.272C518.625 497.272 518.041 497.448 517.609 497.8C517.193 498.136 516.905 498.624 516.745 499.264L513.625 499.12C513.881 497.76 514.505 496.72 515.497 496C516.489 495.264 517.777 494.896 519.361 494.896C521.185 494.896 522.561 495.36 523.489 496.288C524.433 497.2 524.905 498.512 524.905 500.224V504.88C524.905 505.216 524.961 505.448 525.073 505.576C525.201 505.704 525.385 505.768 525.625 505.768H526.033V508C525.937 508.032 525.777 508.056 525.553 508.072C525.345 508.088 525.129 508.096 524.905 508.096C524.377 508.096 523.905 508.016 523.489 507.856C523.073 507.68 522.753 507.384 522.529 506.968C522.305 506.536 522.193 505.952 522.193 505.216L522.457 505.408C522.329 505.968 522.049 506.472 521.617 506.92C521.201 507.352 520.673 507.688 520.033 507.928C519.393 508.168 518.673 508.288 517.873 508.288ZM518.497 506.056C519.185 506.056 519.777 505.92 520.273 505.648C520.769 505.376 521.153 505 521.425 504.52C521.697 504.04 521.833 503.472 521.833 502.816V502.096L518.521 502.768C517.833 502.912 517.337 503.128 517.033 503.416C516.745 503.688 516.601 504.048 516.601 504.496C516.601 504.992 516.761 505.376 517.081 505.648C517.417 505.92 517.889 506.056 518.497 506.056ZM533.095 508.288C531.831 508.288 530.767 508.104 529.903 507.736C529.055 507.368 528.399 506.856 527.935 506.2C527.471 505.544 527.207 504.8 527.143 503.968L530.287 503.824C530.399 504.496 530.679 505.016 531.127 505.384C531.575 505.752 532.239 505.936 533.119 505.936C533.839 505.936 534.399 505.824 534.799 505.6C535.215 505.36 535.423 504.992 535.423 504.496C535.423 504.208 535.351 503.968 535.207 503.776C535.063 503.584 534.791 503.416 534.391 503.272C533.991 503.128 533.399 502.984 532.615 502.84C531.303 502.616 530.271 502.344 529.519 502.024C528.767 501.688 528.231 501.272 527.911 500.776C527.607 500.28 527.455 499.664 527.455 498.928C527.455 497.728 527.911 496.76 528.823 496.024C529.751 495.272 531.103 494.896 532.879 494.896C534.031 494.896 534.999 495.088 535.783 495.472C536.567 495.84 537.175 496.352 537.607 497.008C538.055 497.648 538.335 498.384 538.447 499.216L535.351 499.36C535.271 498.928 535.127 498.552 534.919 498.232C534.711 497.912 534.431 497.672 534.079 497.512C533.727 497.336 533.311 497.248 532.831 497.248C532.111 497.248 531.567 497.392 531.199 497.68C530.831 497.968 530.647 498.352 530.647 498.832C530.647 499.168 530.727 499.448 530.887 499.672C531.063 499.896 531.343 500.08 531.727 500.224C532.111 500.352 532.623 500.472 533.263 500.584C534.607 500.792 535.663 501.064 536.431 501.4C537.215 501.72 537.767 502.136 538.087 502.648C538.423 503.144 538.591 503.744 538.591 504.448C538.591 505.264 538.359 505.96 537.895 506.536C537.447 507.112 536.807 507.552 535.975 507.856C535.159 508.144 534.199 508.288 533.095 508.288ZM546.533 508.288C545.253 508.288 544.141 508.016 543.197 507.472C542.253 506.912 541.525 506.128 541.013 505.12C540.501 504.112 540.245 502.936 540.245 501.592C540.245 500.248 540.501 499.08 541.013 498.088C541.525 497.08 542.245 496.296 543.173 495.736C544.117 495.176 545.213 494.896 546.461 494.896C547.677 494.896 548.741 495.168 549.653 495.712C550.581 496.256 551.293 497.04 551.789 498.064C552.285 499.088 552.533 500.32 552.533 501.76V502.456H543.437C543.501 503.576 543.805 504.424 544.349 505C544.909 505.56 545.645 505.84 546.557 505.84C547.245 505.84 547.813 505.688 548.261 505.384C548.725 505.064 549.045 504.624 549.221 504.064L552.365 504.256C552.013 505.504 551.317 506.488 550.277 507.208C549.253 507.928 548.005 508.288 546.533 508.288ZM543.437 500.392H549.365C549.301 499.352 549.005 498.584 548.477 498.088C547.949 497.576 547.277 497.32 546.461 497.32C545.645 497.32 544.965 497.584 544.421 498.112C543.893 498.64 543.565 499.4 543.437 500.392ZM566.048 508.288C564.784 508.288 563.72 508.104 562.856 507.736C562.008 507.368 561.352 506.856 560.888 506.2C560.424 505.544 560.16 504.8 560.096 503.968L563.24 503.824C563.352 504.496 563.632 505.016 564.08 505.384C564.528 505.752 565.192 505.936 566.072 505.936C566.792 505.936 567.352 505.824 567.752 505.6C568.168 505.36 568.376 504.992 568.376 504.496C568.376 504.208 568.304 503.968 568.16 503.776C568.016 503.584 567.744 503.416 567.344 503.272C566.944 503.128 566.352 502.984 565.568 502.84C564.256 502.616 563.224 502.344 562.472 502.024C561.72 501.688 561.184 501.272 560.864 500.776C560.56 500.28 560.408 499.664 560.408 498.928C560.408 497.728 560.864 496.76 561.776 496.024C562.704 495.272 564.056 494.896 565.832 494.896C566.984 494.896 567.952 495.088 568.736 495.472C569.52 495.84 570.128 496.352 570.56 497.008C571.008 497.648 571.288 498.384 571.4 499.216L568.304 499.36C568.224 498.928 568.08 498.552 567.872 498.232C567.664 497.912 567.384 497.672 567.032 497.512C566.68 497.336 566.264 497.248 565.784 497.248C565.064 497.248 564.52 497.392 564.152 497.68C563.784 497.968 563.6 498.352 563.6 498.832C563.6 499.168 563.68 499.448 563.84 499.672C564.016 499.896 564.296 500.08 564.68 500.224C565.064 500.352 565.576 500.472 566.216 500.584C567.56 500.792 568.616 501.064 569.384 501.4C570.168 501.72 570.72 502.136 571.04 502.648C571.376 503.144 571.544 503.744 571.544 504.448C571.544 505.264 571.312 505.96 570.848 506.536C570.4 507.112 569.76 507.552 568.928 507.856C568.112 508.144 567.152 508.288 566.048 508.288ZM579.51 508.288C578.23 508.288 577.118 508.016 576.174 507.472C575.23 506.912 574.494 506.128 573.966 505.12C573.454 504.112 573.198 502.936 573.198 501.592C573.198 500.248 573.454 499.08 573.966 498.088C574.494 497.08 575.23 496.296 576.174 495.736C577.118 495.176 578.23 494.896 579.51 494.896C580.598 494.896 581.566 495.088 582.414 495.472C583.262 495.856 583.95 496.408 584.478 497.128C585.022 497.832 585.358 498.696 585.486 499.72L582.318 499.888C582.19 499.072 581.87 498.456 581.358 498.04C580.862 497.608 580.246 497.392 579.51 497.392C578.518 497.392 577.75 497.768 577.206 498.52C576.662 499.256 576.39 500.28 576.39 501.592C576.39 502.92 576.662 503.952 577.206 504.688C577.75 505.424 578.518 505.792 579.51 505.792C580.262 505.792 580.886 505.576 581.382 505.144C581.894 504.712 582.206 504.04 582.318 503.128L585.486 503.272C585.358 504.296 585.03 505.184 584.502 505.936C583.974 506.688 583.286 507.272 582.438 507.688C581.59 508.088 580.614 508.288 579.51 508.288ZM587.629 508V490.96H590.701V498.112H590.317C590.445 497.376 590.701 496.776 591.085 496.312C591.469 495.832 591.941 495.48 592.501 495.256C593.061 495.016 593.677 494.896 594.349 494.896C595.293 494.896 596.085 495.104 596.725 495.52C597.381 495.92 597.869 496.488 598.189 497.224C598.525 497.96 598.693 498.808 598.693 499.768V508H595.621V500.512C595.621 499.472 595.445 498.696 595.093 498.184C594.741 497.656 594.189 497.392 593.437 497.392C592.605 497.392 591.941 497.664 591.445 498.208C590.949 498.752 590.701 499.544 590.701 500.584V508H587.629ZM607.283 508.288C606.003 508.288 604.891 508.016 603.947 507.472C603.003 506.912 602.275 506.128 601.763 505.12C601.251 504.112 600.995 502.936 600.995 501.592C600.995 500.248 601.251 499.08 601.763 498.088C602.275 497.08 602.995 496.296 603.923 495.736C604.867 495.176 605.963 494.896 607.211 494.896C608.427 494.896 609.491 495.168 610.403 495.712C611.331 496.256 612.043 497.04 612.539 498.064C613.035 499.088 613.283 500.32 613.283 501.76V502.456H604.187C604.251 503.576 604.555 504.424 605.099 505C605.659 505.56 606.395 505.84 607.307 505.84C607.995 505.84 608.563 505.688 609.011 505.384C609.475 505.064 609.795 504.624 609.971 504.064L613.115 504.256C612.763 505.504 612.067 506.488 611.027 507.208C610.003 507.928 608.755 508.288 607.283 508.288ZM604.187 500.392H610.115C610.051 499.352 609.755 498.584 609.227 498.088C608.699 497.576 608.027 497.32 607.211 497.32C606.395 497.32 605.715 497.584 605.171 498.112C604.643 498.64 604.315 499.4 604.187 500.392ZM615.684 508V495.184H618.468L618.564 498.328L618.276 498.184C618.42 497.496 618.668 496.912 619.02 496.432C619.388 495.936 619.828 495.56 620.34 495.304C620.868 495.032 621.444 494.896 622.068 494.896C623.156 494.896 624.036 495.208 624.708 495.832C625.38 496.44 625.804 497.28 625.98 498.352H625.572C625.716 497.6 625.964 496.976 626.316 496.48C626.668 495.968 627.108 495.576 627.636 495.304C628.18 495.032 628.788 494.896 629.46 494.896C630.34 494.896 631.1 495.088 631.74 495.472C632.38 495.84 632.868 496.384 633.204 497.104C633.556 497.824 633.732 498.712 633.732 499.768V508H630.66V500.56C630.66 499.504 630.476 498.712 630.108 498.184C629.756 497.656 629.212 497.392 628.476 497.392C627.98 497.392 627.556 497.52 627.204 497.776C626.852 498.032 626.58 498.408 626.388 498.904C626.212 499.384 626.124 499.968 626.124 500.656V508H623.268V500.656C623.268 499.6 623.108 498.792 622.788 498.232C622.468 497.672 621.916 497.392 621.132 497.392C620.636 497.392 620.212 497.52 619.86 497.776C619.524 498.032 619.252 498.408 619.044 498.904C618.852 499.384 618.756 499.968 618.756 500.656V508H615.684ZM640.521 508.288C639.177 508.288 638.097 507.984 637.281 507.376C636.465 506.752 636.057 505.888 636.057 504.784C636.057 503.68 636.401 502.816 637.089 502.192C637.777 501.568 638.825 501.12 640.233 500.848L644.481 500.008C644.481 499.096 644.273 498.416 643.857 497.968C643.441 497.504 642.825 497.272 642.009 497.272C641.273 497.272 640.689 497.448 640.257 497.8C639.841 498.136 639.553 498.624 639.393 499.264L636.273 499.12C636.529 497.76 637.153 496.72 638.145 496C639.137 495.264 640.425 494.896 642.009 494.896C643.833 494.896 645.209 495.36 646.137 496.288C647.081 497.2 647.553 498.512 647.553 500.224V504.88C647.553 505.216 647.609 505.448 647.721 505.576C647.849 505.704 648.033 505.768 648.273 505.768H648.681V508C648.585 508.032 648.425 508.056 648.201 508.072C647.993 508.088 647.777 508.096 647.553 508.096C647.025 508.096 646.553 508.016 646.137 507.856C645.721 507.68 645.401 507.384 645.177 506.968C644.953 506.536 644.841 505.952 644.841 505.216L645.105 505.408C644.977 505.968 644.697 506.472 644.265 506.92C643.849 507.352 643.321 507.688 642.681 507.928C642.041 508.168 641.321 508.288 640.521 508.288ZM641.145 506.056C641.833 506.056 642.425 505.92 642.921 505.648C643.417 505.376 643.801 505 644.073 504.52C644.345 504.04 644.481 503.472 644.481 502.816V502.096L641.169 502.768C640.481 502.912 639.985 503.128 639.681 503.416C639.393 503.688 639.249 504.048 639.249 504.496C639.249 504.992 639.409 505.376 639.729 505.648C640.065 505.92 640.537 506.056 641.145 506.056ZM657.739 508V494.68C657.739 493.528 658.059 492.624 658.699 491.968C659.355 491.296 660.355 490.96 661.699 490.96H664.195V493.336H662.275C661.779 493.336 661.411 493.464 661.171 493.72C660.947 493.976 660.835 494.352 660.835 494.848V508H657.739ZM655.915 497.896V495.52H664.027V497.896H655.915ZM666.051 508V495.184H668.931L669.051 498.736L668.787 498.688C668.979 497.456 669.339 496.568 669.867 496.024C670.411 495.464 671.147 495.184 672.075 495.184H673.251V497.824H672.051C671.395 497.824 670.851 497.92 670.419 498.112C669.987 498.304 669.659 498.608 669.435 499.024C669.227 499.424 669.123 499.952 669.123 500.608V508H666.051ZM680.478 508.288C679.214 508.288 678.102 508.016 677.142 507.472C676.198 506.912 675.462 506.128 674.934 505.12C674.422 504.112 674.166 502.936 674.166 501.592C674.166 500.232 674.422 499.056 674.934 498.064C675.462 497.056 676.198 496.28 677.142 495.736C678.102 495.176 679.214 494.896 680.478 494.896C681.742 494.896 682.846 495.176 683.79 495.736C684.734 496.28 685.462 497.056 685.974 498.064C686.502 499.056 686.766 500.232 686.766 501.592C686.766 502.936 686.502 504.112 685.974 505.12C685.462 506.128 684.734 506.912 683.79 507.472C682.846 508.016 681.742 508.288 680.478 508.288ZM680.478 505.792C681.47 505.792 682.23 505.424 682.758 504.688C683.302 503.952 683.574 502.92 683.574 501.592C683.574 500.28 683.302 499.256 682.758 498.52C682.23 497.768 681.47 497.392 680.478 497.392C679.486 497.392 678.718 497.768 678.174 498.52C677.63 499.256 677.358 500.28 677.358 501.592C677.358 502.92 677.63 503.952 678.174 504.688C678.718 505.424 679.486 505.792 680.478 505.792ZM689.137 508V495.184H691.921L692.017 498.328L691.729 498.184C691.873 497.496 692.121 496.912 692.473 496.432C692.841 495.936 693.281 495.56 693.793 495.304C694.321 495.032 694.897 494.896 695.521 494.896C696.609 494.896 697.489 495.208 698.161 495.832C698.833 496.44 699.257 497.28 699.433 498.352H699.025C699.169 497.6 699.417 496.976 699.769 496.48C700.121 495.968 700.561 495.576 701.089 495.304C701.633 495.032 702.241 494.896 702.913 494.896C703.793 494.896 704.553 495.088 705.193 495.472C705.833 495.84 706.321 496.384 706.657 497.104C707.009 497.824 707.185 498.712 707.185 499.768V508H704.113V500.56C704.113 499.504 703.929 498.712 703.561 498.184C703.209 497.656 702.665 497.392 701.929 497.392C701.433 497.392 701.009 497.52 700.657 497.776C700.305 498.032 700.033 498.408 699.841 498.904C699.665 499.384 699.577 499.968 699.577 500.656V508H696.721V500.656C696.721 499.6 696.561 498.792 696.241 498.232C695.921 497.672 695.369 497.392 694.585 497.392C694.089 497.392 693.665 497.52 693.313 497.776C692.977 498.032 692.705 498.408 692.497 498.904C692.305 499.384 692.209 499.968 692.209 500.656V508H689.137ZM719.927 508.288C718.583 508.288 717.503 507.984 716.687 507.376C715.871 506.752 715.463 505.888 715.463 504.784C715.463 503.68 715.807 502.816 716.495 502.192C717.183 501.568 718.231 501.12 719.639 500.848L723.887 500.008C723.887 499.096 723.679 498.416 723.263 497.968C722.847 497.504 722.231 497.272 721.415 497.272C720.679 497.272 720.095 497.448 719.663 497.8C719.247 498.136 718.959 498.624 718.799 499.264L715.679 499.12C715.935 497.76 716.559 496.72 717.551 496C718.543 495.264 719.831 494.896 721.415 494.896C723.239 494.896 724.615 495.36 725.543 496.288C726.487 497.2 726.959 498.512 726.959 500.224V504.88C726.959 505.216 727.015 505.448 727.127 505.576C727.255 505.704 727.439 505.768 727.679 505.768H728.087V508C727.991 508.032 727.831 508.056 727.607 508.072C727.399 508.088 727.183 508.096 726.959 508.096C726.431 508.096 725.959 508.016 725.543 507.856C725.127 507.68 724.807 507.384 724.583 506.968C724.359 506.536 724.247 505.952 724.247 505.216L724.511 505.408C724.383 505.968 724.103 506.472 723.671 506.92C723.255 507.352 722.727 507.688 722.087 507.928C721.447 508.168 720.727 508.288 719.927 508.288ZM720.551 506.056C721.239 506.056 721.831 505.92 722.327 505.648C722.823 505.376 723.207 505 723.479 504.52C723.751 504.04 723.887 503.472 723.887 502.816V502.096L720.575 502.768C719.887 502.912 719.391 503.128 719.087 503.416C718.799 503.688 718.655 504.048 718.655 504.496C718.655 504.992 718.815 505.376 719.135 505.648C719.471 505.92 719.943 506.056 720.551 506.056ZM730.082 508V495.184H732.866L732.986 498.784L732.626 498.64C732.754 497.744 733.018 497.024 733.418 496.48C733.818 495.936 734.306 495.536 734.882 495.28C735.458 495.024 736.09 494.896 736.778 494.896C737.722 494.896 738.514 495.104 739.154 495.52C739.81 495.936 740.306 496.512 740.642 497.248C740.978 497.968 741.146 498.808 741.146 499.768V508H738.074V500.752C738.074 500.032 738.002 499.424 737.858 498.928C737.714 498.432 737.474 498.056 737.138 497.8C736.818 497.528 736.386 497.392 735.842 497.392C735.026 497.392 734.37 497.68 733.874 498.256C733.394 498.832 733.154 499.664 733.154 500.752V508H730.082ZM753.888 508.288C752.544 508.288 751.464 507.984 750.648 507.376C749.832 506.752 749.424 505.888 749.424 504.784C749.424 503.68 749.768 502.816 750.456 502.192C751.144 501.568 752.192 501.12 753.6 500.848L757.848 500.008C757.848 499.096 757.64 498.416 757.224 497.968C756.808 497.504 756.192 497.272 755.376 497.272C754.64 497.272 754.056 497.448 753.624 497.8C753.208 498.136 752.92 498.624 752.76 499.264L749.64 499.12C749.896 497.76 750.52 496.72 751.512 496C752.504 495.264 753.792 494.896 755.376 494.896C757.2 494.896 758.576 495.36 759.504 496.288C760.448 497.2 760.92 498.512 760.92 500.224V504.88C760.92 505.216 760.976 505.448 761.088 505.576C761.216 505.704 761.4 505.768 761.64 505.768H762.048V508C761.952 508.032 761.792 508.056 761.568 508.072C761.36 508.088 761.144 508.096 760.92 508.096C760.392 508.096 759.92 508.016 759.504 507.856C759.088 507.68 758.768 507.384 758.544 506.968C758.32 506.536 758.208 505.952 758.208 505.216L758.472 505.408C758.344 505.968 758.064 506.472 757.632 506.92C757.216 507.352 756.688 507.688 756.048 507.928C755.408 508.168 754.688 508.288 753.888 508.288ZM754.512 506.056C755.2 506.056 755.792 505.92 756.288 505.648C756.784 505.376 757.168 505 757.44 504.52C757.712 504.04 757.848 503.472 757.848 502.816V502.096L754.536 502.768C753.848 502.912 753.352 503.128 753.048 503.416C752.76 503.688 752.616 504.048 752.616 504.496C752.616 504.992 752.776 505.376 753.096 505.648C753.432 505.92 753.904 506.056 754.512 506.056ZM764.043 511.6V495.184H766.995L767.067 497.92L766.755 497.776C767.075 496.832 767.595 496.12 768.315 495.64C769.051 495.144 769.907 494.896 770.883 494.896C772.099 494.896 773.107 495.2 773.907 495.808C774.723 496.416 775.331 497.224 775.731 498.232C776.131 499.24 776.331 500.36 776.331 501.592C776.331 502.824 776.123 503.944 775.707 504.952C775.307 505.96 774.699 506.768 773.883 507.376C773.083 507.984 772.075 508.288 770.859 508.288C770.219 508.288 769.619 508.176 769.059 507.952C768.515 507.728 768.043 507.408 767.643 506.992C767.259 506.576 766.987 506.088 766.827 505.528L767.115 505.288V511.6H764.043ZM770.139 505.792C771.067 505.792 771.795 505.424 772.323 504.688C772.867 503.936 773.139 502.904 773.139 501.592C773.139 500.28 772.867 499.256 772.323 498.52C771.795 497.768 771.067 497.392 770.139 497.392C769.515 497.392 768.979 497.552 768.531 497.872C768.083 498.176 767.731 498.64 767.475 499.264C767.235 499.888 767.115 500.664 767.115 501.592C767.115 502.52 767.235 503.296 767.475 503.92C767.715 504.544 768.059 505.016 768.507 505.336C768.971 505.64 769.515 505.792 770.139 505.792ZM778.715 511.6V495.184H781.667L781.739 497.92L781.427 497.776C781.747 496.832 782.267 496.12 782.987 495.64C783.723 495.144 784.579 494.896 785.555 494.896C786.771 494.896 787.779 495.2 788.579 495.808C789.395 496.416 790.003 497.224 790.403 498.232C790.803 499.24 791.003 500.36 791.003 501.592C791.003 502.824 790.795 503.944 790.379 504.952C789.979 505.96 789.371 506.768 788.555 507.376C787.755 507.984 786.747 508.288 785.531 508.288C784.891 508.288 784.291 508.176 783.731 507.952C783.187 507.728 782.715 507.408 782.315 506.992C781.931 506.576 781.659 506.088 781.499 505.528L781.787 505.288V511.6H778.715ZM784.811 505.792C785.739 505.792 786.467 505.424 786.995 504.688C787.539 503.936 787.811 502.904 787.811 501.592C787.811 500.28 787.539 499.256 786.995 498.52C786.467 497.768 785.739 497.392 784.811 497.392C784.187 497.392 783.651 497.552 783.203 497.872C782.755 498.176 782.403 498.64 782.147 499.264C781.907 499.888 781.787 500.664 781.787 501.592C781.787 502.52 781.907 503.296 782.147 503.92C782.387 504.544 782.731 505.016 783.179 505.336C783.643 505.64 784.187 505.792 784.811 505.792ZM795.63 508L791.766 495.184H794.91L797.406 504.52L799.974 495.184H802.662L805.254 504.52L807.75 495.184H810.894L807.03 508H803.862L801.318 499.408L798.798 508H795.63ZM812.535 508V495.184H815.415L815.535 498.736L815.271 498.688C815.463 497.456 815.823 496.568 816.351 496.024C816.895 495.464 817.631 495.184 818.559 495.184H819.735V497.824H818.535C817.879 497.824 817.335 497.92 816.903 498.112C816.471 498.304 816.143 498.608 815.919 499.024C815.711 499.424 815.607 499.952 815.607 500.608V508H812.535ZM821.723 508V495.184H824.795V508H821.723ZM821.675 493.48V490.744H824.867V493.48H821.675ZM832.507 508C831.227 508 830.283 507.704 829.675 507.112C829.083 506.52 828.787 505.592 828.787 504.328V492.184H831.859V504.04C831.859 504.632 831.987 505.048 832.243 505.288C832.499 505.512 832.899 505.624 833.443 505.624H835.243V508H832.507ZM826.771 497.56V495.184H835.243V497.56H826.771ZM842.829 508.288C841.549 508.288 840.437 508.016 839.493 507.472C838.549 506.912 837.821 506.128 837.309 505.12C836.797 504.112 836.541 502.936 836.541 501.592C836.541 500.248 836.797 499.08 837.309 498.088C837.821 497.08 838.541 496.296 839.469 495.736C840.413 495.176 841.509 494.896 842.757 494.896C843.973 494.896 845.037 495.168 845.949 495.712C846.877 496.256 847.589 497.04 848.085 498.064C848.581 499.088 848.829 500.32 848.829 501.76V502.456H839.733C839.797 503.576 840.101 504.424 840.645 505C841.205 505.56 841.941 505.84 842.853 505.84C843.541 505.84 844.109 505.688 844.557 505.384C845.021 505.064 845.341 504.624 845.517 504.064L848.661 504.256C848.309 505.504 847.613 506.488 846.573 507.208C845.549 507.928 844.301 508.288 842.829 508.288ZM839.733 500.392H845.661C845.597 499.352 845.301 498.584 844.773 498.088C844.245 497.576 843.573 497.32 842.757 497.32C841.941 497.32 841.261 497.584 840.717 498.112C840.189 498.64 839.861 499.4 839.733 500.392ZM850.721 508V504.64H854.225V508H850.721ZM862.424 508.288C861.144 508.288 860.032 508.016 859.088 507.472C858.144 506.912 857.408 506.128 856.88 505.12C856.368 504.112 856.112 502.936 856.112 501.592C856.112 500.248 856.368 499.08 856.88 498.088C857.408 497.08 858.144 496.296 859.088 495.736C860.032 495.176 861.144 494.896 862.424 494.896C863.512 494.896 864.48 495.088 865.328 495.472C866.176 495.856 866.864 496.408 867.392 497.128C867.936 497.832 868.272 498.696 868.4 499.72L865.232 499.888C865.104 499.072 864.784 498.456 864.272 498.04C863.776 497.608 863.16 497.392 862.424 497.392C861.432 497.392 860.664 497.768 860.12 498.52C859.576 499.256 859.304 500.28 859.304 501.592C859.304 502.92 859.576 503.952 860.12 504.688C860.664 505.424 861.432 505.792 862.424 505.792C863.176 505.792 863.8 505.576 864.296 505.144C864.808 504.712 865.12 504.04 865.232 503.128L868.4 503.272C868.272 504.296 867.944 505.184 867.416 505.936C866.888 506.688 866.2 507.272 865.352 507.688C864.504 508.088 863.528 508.288 862.424 508.288ZM876.111 508.288C874.847 508.288 873.735 508.016 872.775 507.472C871.831 506.912 871.095 506.128 870.567 505.12C870.055 504.112 869.799 502.936 869.799 501.592C869.799 500.232 870.055 499.056 870.567 498.064C871.095 497.056 871.831 496.28 872.775 495.736C873.735 495.176 874.847 494.896 876.111 494.896C877.375 494.896 878.479 495.176 879.423 495.736C880.367 496.28 881.095 497.056 881.607 498.064C882.135 499.056 882.399 500.232 882.399 501.592C882.399 502.936 882.135 504.112 881.607 505.12C881.095 506.128 880.367 506.912 879.423 507.472C878.479 508.016 877.375 508.288 876.111 508.288ZM876.111 505.792C877.103 505.792 877.863 505.424 878.391 504.688C878.935 503.952 879.207 502.92 879.207 501.592C879.207 500.28 878.935 499.256 878.391 498.52C877.863 497.768 877.103 497.392 876.111 497.392C875.119 497.392 874.351 497.768 873.807 498.52C873.263 499.256 872.991 500.28 872.991 501.592C872.991 502.92 873.263 503.952 873.807 504.688C874.351 505.424 875.119 505.792 876.111 505.792ZM884.77 508V495.184H887.554L887.674 498.784L887.314 498.64C887.442 497.744 887.706 497.024 888.106 496.48C888.506 495.936 888.994 495.536 889.57 495.28C890.146 495.024 890.778 494.896 891.466 494.896C892.41 494.896 893.202 495.104 893.842 495.52C894.498 495.936 894.994 496.512 895.33 497.248C895.666 497.968 895.834 498.808 895.834 499.768V508H892.762V500.752C892.762 500.032 892.69 499.424 892.546 498.928C892.402 498.432 892.162 498.056 891.826 497.8C891.506 497.528 891.074 497.392 890.53 497.392C889.714 497.392 889.058 497.68 888.562 498.256C888.082 498.832 887.842 499.664 887.842 500.752V508H884.77ZM899.872 508V494.68C899.872 493.528 900.192 492.624 900.832 491.968C901.488 491.296 902.488 490.96 903.832 490.96H906.328V493.336H904.408C903.912 493.336 903.544 493.464 903.304 493.72C903.08 493.976 902.968 494.352 902.968 494.848V508H899.872ZM898.048 497.896V495.52H906.16V497.896H898.048ZM908.512 508V495.184H911.584V508H908.512ZM908.464 493.48V490.744H911.656V493.48H908.464ZM920.195 511.888C919.075 511.888 918.115 511.736 917.315 511.432C916.515 511.128 915.867 510.696 915.371 510.136C914.891 509.592 914.555 508.96 914.363 508.24L917.531 508.024C917.691 508.504 917.963 508.88 918.347 509.152C918.747 509.424 919.363 509.56 920.195 509.56C921.139 509.56 921.867 509.344 922.379 508.912C922.891 508.496 923.147 507.84 923.147 506.944V505.312C922.843 505.936 922.355 506.44 921.683 506.824C921.011 507.192 920.259 507.376 919.427 507.376C918.371 507.376 917.427 507.12 916.595 506.608C915.779 506.08 915.139 505.352 914.675 504.424C914.211 503.48 913.979 502.392 913.979 501.16C913.979 499.928 914.203 498.848 914.651 497.92C915.115 496.976 915.755 496.24 916.571 495.712C917.387 495.168 918.323 494.896 919.379 494.896C920.307 494.896 921.107 495.104 921.779 495.52C922.451 495.936 922.939 496.488 923.243 497.176V495.184H926.243V506.872C926.243 507.96 925.987 508.88 925.475 509.632C924.979 510.384 924.275 510.944 923.363 511.312C922.467 511.696 921.411 511.888 920.195 511.888ZM920.147 504.976C921.059 504.976 921.787 504.64 922.331 503.968C922.875 503.28 923.155 502.336 923.171 501.136C923.187 500.336 923.067 499.656 922.811 499.096C922.571 498.52 922.219 498.08 921.755 497.776C921.307 497.456 920.771 497.296 920.147 497.296C919.203 497.296 918.467 497.648 917.939 498.352C917.427 499.04 917.171 499.968 917.171 501.136C917.171 502.304 917.435 503.24 917.963 503.944C918.507 504.632 919.235 504.976 920.147 504.976ZM928.862 508V504.64H932.366V508H928.862ZM933.479 511.6V509.224H934.751C935.199 509.224 935.543 509.12 935.783 508.912C936.039 508.72 936.167 508.352 936.167 507.808V495.184H939.239V507.904C939.239 509.216 938.943 510.16 938.351 510.736C937.759 511.312 936.743 511.6 935.303 511.6H933.479ZM936.119 493.48V490.744H939.311V493.48H936.119ZM947.587 508.288C946.323 508.288 945.259 508.104 944.395 507.736C943.547 507.368 942.891 506.856 942.427 506.2C941.963 505.544 941.699 504.8 941.635 503.968L944.779 503.824C944.891 504.496 945.171 505.016 945.619 505.384C946.067 505.752 946.731 505.936 947.611 505.936C948.331 505.936 948.891 505.824 949.291 505.6C949.707 505.36 949.915 504.992 949.915 504.496C949.915 504.208 949.843 503.968 949.699 503.776C949.555 503.584 949.283 503.416 948.883 503.272C948.483 503.128 947.891 502.984 947.107 502.84C945.795 502.616 944.763 502.344 944.011 502.024C943.259 501.688 942.723 501.272 942.403 500.776C942.099 500.28 941.947 499.664 941.947 498.928C941.947 497.728 942.403 496.76 943.315 496.024C944.243 495.272 945.595 494.896 947.371 494.896C948.523 494.896 949.491 495.088 950.275 495.472C951.059 495.84 951.667 496.352 952.099 497.008C952.547 497.648 952.827 498.384 952.939 499.216L949.843 499.36C949.763 498.928 949.619 498.552 949.411 498.232C949.203 497.912 948.923 497.672 948.571 497.512C948.219 497.336 947.803 497.248 947.323 497.248C946.603 497.248 946.059 497.392 945.691 497.68C945.323 497.968 945.139 498.352 945.139 498.832C945.139 499.168 945.219 499.448 945.379 499.672C945.555 499.896 945.835 500.08 946.219 500.224C946.603 500.352 947.115 500.472 947.755 500.584C949.099 500.792 950.155 501.064 950.923 501.4C951.707 501.72 952.259 502.136 952.579 502.648C952.915 503.144 953.083 503.744 953.083 504.448C953.083 505.264 952.851 505.96 952.387 506.536C951.939 507.112 951.299 507.552 950.467 507.856C949.651 508.144 948.691 508.288 947.587 508.288ZM961.049 508.288C959.785 508.288 958.673 508.016 957.713 507.472C956.769 506.912 956.033 506.128 955.505 505.12C954.993 504.112 954.737 502.936 954.737 501.592C954.737 500.232 954.993 499.056 955.505 498.064C956.033 497.056 956.769 496.28 957.713 495.736C958.673 495.176 959.785 494.896 961.049 494.896C962.313 494.896 963.417 495.176 964.361 495.736C965.305 496.28 966.033 497.056 966.545 498.064C967.073 499.056 967.337 500.232 967.337 501.592C967.337 502.936 967.073 504.112 966.545 505.12C966.033 506.128 965.305 506.912 964.361 507.472C963.417 508.016 962.313 508.288 961.049 508.288ZM961.049 505.792C962.041 505.792 962.801 505.424 963.329 504.688C963.873 503.952 964.145 502.92 964.145 501.592C964.145 500.28 963.873 499.256 963.329 498.52C962.801 497.768 962.041 497.392 961.049 497.392C960.057 497.392 959.289 497.768 958.745 498.52C958.201 499.256 957.929 500.28 957.929 501.592C957.929 502.92 958.201 503.952 958.745 504.688C959.289 505.424 960.057 505.792 961.049 505.792ZM969.707 508V495.184H972.491L972.611 498.784L972.251 498.64C972.379 497.744 972.643 497.024 973.043 496.48C973.443 495.936 973.931 495.536 974.507 495.28C975.083 495.024 975.715 494.896 976.403 494.896C977.347 494.896 978.139 495.104 978.779 495.52C979.435 495.936 979.931 496.512 980.267 497.248C980.603 497.968 980.771 498.808 980.771 499.768V508H977.699V500.752C977.699 500.032 977.627 499.424 977.483 498.928C977.339 498.432 977.099 498.056 976.763 497.8C976.443 497.528 976.011 497.392 975.467 497.392C974.651 497.392 973.995 497.68 973.499 498.256C973.019 498.832 972.779 499.664 972.779 500.752V508H969.707ZM991.137 508V494.68C991.137 493.528 991.457 492.624 992.097 491.968C992.753 491.296 993.753 490.96 995.097 490.96H997.593V493.336H995.673C995.177 493.336 994.809 493.464 994.569 493.72C994.345 493.976 994.233 494.352 994.233 494.848V508H991.137ZM989.313 497.896V495.52H997.425V497.896H989.313ZM999.777 508V495.184H1002.85V508H999.777ZM999.729 493.48V490.744H1002.92V493.48H999.729ZM1009.13 508C1008.2 508 1007.46 507.76 1006.9 507.28C1006.34 506.8 1006.06 506.032 1006.06 504.976V490.96H1009.13V504.664C1009.13 504.984 1009.21 505.224 1009.37 505.384C1009.55 505.544 1009.79 505.624 1010.09 505.624H1011.03V508H1009.13ZM1018.54 508.288C1017.26 508.288 1016.15 508.016 1015.2 507.472C1014.26 506.912 1013.53 506.128 1013.02 505.12C1012.51 504.112 1012.25 502.936 1012.25 501.592C1012.25 500.248 1012.51 499.08 1013.02 498.088C1013.53 497.08 1014.25 496.296 1015.18 495.736C1016.12 495.176 1017.22 494.896 1018.47 494.896C1019.68 494.896 1020.75 495.168 1021.66 495.712C1022.59 496.256 1023.3 497.04 1023.8 498.064C1024.29 499.088 1024.54 500.32 1024.54 501.76V502.456H1015.44C1015.51 503.576 1015.81 504.424 1016.36 505C1016.92 505.56 1017.65 505.84 1018.56 505.84C1019.25 505.84 1019.82 505.688 1020.27 505.384C1020.73 505.064 1021.05 504.624 1021.23 504.064L1024.37 504.256C1024.02 505.504 1023.32 506.488 1022.28 507.208C1021.26 507.928 1020.01 508.288 1018.54 508.288ZM1015.44 500.392H1021.37C1021.31 499.352 1021.01 498.584 1020.48 498.088C1019.96 497.576 1019.28 497.32 1018.47 497.32C1017.65 497.32 1016.97 497.584 1016.43 498.112C1015.9 498.64 1015.57 499.4 1015.44 500.392ZM1026.43 508V504.64H1029.94V508H1026.43Z" fill="black"/>
<path d="M705 122.75H493C478.364 122.75 466.5 134.614 466.5 149.25V281.75C466.5 296.386 478.364 308.25 493 308.25H705C719.636 308.25 731.5 296.386 731.5 281.75V149.25C731.5 134.614 719.636 122.75 705 122.75Z" stroke="black" stroke-width="8" stroke-linecap="round" stroke-linejoin="round"/>
<path d="M546 361.25H652" stroke="black" stroke-width="8" stroke-linecap="round" stroke-linejoin="round"/>
<path d="M599 308.25V361.25" stroke="black" stroke-width="8" stroke-linecap="round" stroke-linejoin="round"/>
<path d="M599 193.077C629.397 193.077 654.038 184.863 654.038 174.731C654.038 164.598 629.397 156.385 599 156.385C568.603 156.385 543.961 164.598 543.961 174.731C543.961 184.863 568.603 193.077 599 193.077Z" stroke="black" stroke-width="8" stroke-linecap="round" stroke-linejoin="round"/>
<path d="M543.961 174.731V260.346C543.961 265.212 549.76 269.878 560.082 273.319C570.404 276.759 584.403 278.692 599 278.692C613.597 278.692 627.596 276.759 637.918 273.319C648.24 269.878 654.038 265.212 654.038 260.346V174.731" stroke="black" stroke-width="8" stroke-linecap="round" stroke-linejoin="round"/>
<path d="M543.961 217.538C543.961 222.404 549.76 227.071 560.082 230.511C570.404 233.952 584.403 235.885 599 235.885C613.597 235.885 627.596 233.952 637.918 230.511C648.24 227.071 654.038 222.404 654.038 217.538" stroke="black" stroke-width="8" stroke-linecap="round" stroke-linejoin="round"/>
<path d="M177.344 450L190.272 404.56H200.128L213.056 450H204.928L195.2 413.52L185.472 450H177.344ZM185.28 439.248L187.456 432.144H202.944L205.12 439.248H185.28ZM218.471 459.6V415.824H225.703L225.895 423.632L225.127 423.248C225.98 420.603 227.346 418.576 229.223 417.168C231.143 415.76 233.447 415.056 236.135 415.056C239.292 415.056 241.895 415.867 243.943 417.488C246.034 419.109 247.57 421.264 248.551 423.952C249.575 426.64 250.087 429.627 250.087 432.912C250.087 436.197 249.575 439.184 248.551 441.872C247.57 444.56 246.034 446.715 243.943 448.336C241.895 449.957 239.292 450.768 236.135 450.768C234.386 450.768 232.764 450.491 231.271 449.936C229.82 449.339 228.562 448.507 227.495 447.44C226.471 446.331 225.703 444.965 225.191 443.344L226.023 442.448V459.6H218.471ZM234.215 443.984C236.732 443.984 238.695 443.067 240.103 441.232C241.511 439.355 242.215 436.581 242.215 432.912C242.215 429.243 241.511 426.491 240.103 424.656C238.695 422.779 236.732 421.84 234.215 421.84C232.594 421.84 231.164 422.245 229.927 423.056C228.732 423.867 227.772 425.104 227.047 426.768C226.364 428.389 226.023 430.437 226.023 432.912C226.023 435.387 226.364 437.456 227.047 439.12C227.73 440.741 228.69 441.957 229.927 442.768C231.164 443.579 232.594 443.984 234.215 443.984ZM256.846 459.6V415.824H264.078L264.27 423.632L263.502 423.248C264.355 420.603 265.721 418.576 267.598 417.168C269.518 415.76 271.822 415.056 274.51 415.056C277.667 415.056 280.27 415.867 282.318 417.488C284.409 419.109 285.945 421.264 286.926 423.952C287.95 426.64 288.462 429.627 288.462 432.912C288.462 436.197 287.95 439.184 286.926 441.872C285.945 444.56 284.409 446.715 282.318 448.336C280.27 449.957 277.667 450.768 274.51 450.768C272.761 450.768 271.139 450.491 269.646 449.936C268.195 449.339 266.937 448.507 265.87 447.44C264.846 446.331 264.078 444.965 263.566 443.344L264.398 442.448V459.6H256.846ZM272.59 443.984C275.107 443.984 277.07 443.067 278.478 441.232C279.886 439.355 280.59 436.581 280.59 432.912C280.59 429.243 279.886 426.491 278.478 424.656C277.07 422.779 275.107 421.84 272.59 421.84C270.969 421.84 269.539 422.245 268.302 423.056C267.107 423.867 266.147 425.104 265.422 426.768C264.739 428.389 264.398 430.437 264.398 432.912C264.398 435.387 264.739 437.456 265.422 439.12C266.105 440.741 267.065 441.957 268.302 442.768C269.539 443.579 270.969 443.984 272.59 443.984ZM298.613 450L292.149 415.824H299.893L303.477 440.144L307.445 420.688H313.205L317.173 440.144L320.757 415.824H328.501L322.101 450H314.229L310.325 431.568L306.421 450H298.613ZM342.94 450V415.824H348.7L349.276 424.656H348.7C349.127 421.669 350.023 419.451 351.388 418C352.796 416.549 354.78 415.824 357.34 415.824H364.828V422.16H357.788C356.167 422.16 354.823 422.459 353.756 423.056C352.689 423.653 351.879 424.528 351.324 425.68C350.769 426.832 350.492 428.283 350.492 430.032V450H342.94ZM334.492 450V443.856H361.052V450H334.492ZM334.492 421.968V415.824H347.356V421.968H334.492ZM385.539 450V415.824H393.091V450H385.539ZM372.483 450V443.856H404.227V450H372.483ZM373.123 421.968V415.824H392.003V421.968H373.123ZM385.219 411.28V404.112H392.899V411.28H385.219ZM430.25 450C426.581 450 423.871 449.168 422.122 447.504C420.373 445.797 419.498 443.216 419.498 439.76V407.824H427.05V439.184C427.05 440.763 427.434 441.936 428.202 442.704C428.97 443.472 430.101 443.856 431.594 443.856H440.042V450H430.25ZM409.194 421.968V415.824H440.042V421.968H409.194ZM464.145 450.768C460.945 450.768 458.129 450.043 455.697 448.592C453.308 447.141 451.452 445.072 450.129 442.384C448.806 439.696 448.145 436.539 448.145 432.912C448.145 429.328 448.806 426.213 450.129 423.568C451.452 420.88 453.286 418.789 455.633 417.296C458.022 415.803 460.817 415.056 464.017 415.056C467.089 415.056 469.798 415.781 472.145 417.232C474.534 418.683 476.39 420.752 477.713 423.44C479.078 426.128 479.761 429.328 479.761 433.04V435.024H455.953C456.166 437.925 456.998 440.144 458.449 441.68C459.942 443.216 461.884 443.984 464.273 443.984C466.108 443.984 467.622 443.557 468.817 442.704C470.054 441.808 470.908 440.656 471.377 439.248L479.121 439.824C478.054 443.237 476.241 445.925 473.681 447.888C471.121 449.808 467.942 450.768 464.145 450.768ZM456.017 429.52H471.569C471.356 426.917 470.566 424.997 469.201 423.76C467.836 422.48 466.086 421.84 463.953 421.84C461.82 421.84 460.049 422.501 458.641 423.824C457.276 425.104 456.401 427.003 456.017 429.52ZM541.023 451.024C537.695 451.024 534.794 450.363 532.319 449.04C529.887 447.717 527.967 445.861 526.559 443.472C525.151 441.04 524.319 438.181 524.063 434.896L532.127 434.448C532.426 436.539 532.959 438.288 533.727 439.696C534.538 441.061 535.583 442.107 536.863 442.832C538.186 443.515 539.7 443.856 541.407 443.856C543.028 443.856 544.394 443.643 545.503 443.216C546.655 442.789 547.53 442.149 548.127 441.296C548.724 440.443 549.023 439.419 549.023 438.224C549.023 436.944 548.724 435.835 548.127 434.896C547.53 433.957 546.463 433.083 544.927 432.272C543.391 431.461 541.194 430.672 538.335 429.904C535.263 429.093 532.746 428.155 530.783 427.088C528.82 426.021 527.37 424.699 526.431 423.12C525.492 421.499 525.023 419.472 525.023 417.04C525.023 414.309 525.62 411.941 526.815 409.936C528.052 407.888 529.823 406.309 532.127 405.2C534.474 404.091 537.268 403.536 540.511 403.536C543.711 403.536 546.442 404.155 548.703 405.392C550.964 406.587 552.735 408.315 554.015 410.576C555.338 412.795 556.148 415.44 556.447 418.512L548.319 418.896C548.106 417.232 547.658 415.803 546.975 414.608C546.335 413.371 545.439 412.411 544.287 411.728C543.178 411.045 541.812 410.704 540.191 410.704C538.015 410.704 536.287 411.259 535.007 412.368C533.727 413.435 533.087 414.843 533.087 416.592C533.087 417.829 533.364 418.853 533.919 419.664C534.516 420.475 535.519 421.2 536.927 421.84C538.335 422.48 540.319 423.12 542.879 423.76C546.42 424.699 549.215 425.808 551.263 427.088C553.354 428.368 554.847 429.904 555.743 431.696C556.639 433.488 557.087 435.6 557.087 438.032C557.087 440.635 556.426 442.917 555.103 444.88C553.78 446.843 551.924 448.357 549.535 449.424C547.146 450.491 544.308 451.024 541.023 451.024ZM579.654 450.768C576.411 450.768 573.574 450.021 571.142 448.528C568.71 447.035 566.811 444.965 565.446 442.32C564.081 439.632 563.398 436.496 563.398 432.912C563.398 429.328 564.081 426.213 565.446 423.568C566.811 420.88 568.71 418.789 571.142 417.296C573.574 415.803 576.411 415.056 579.654 415.056C582.299 415.056 584.667 415.568 586.758 416.592C588.891 417.616 590.641 419.088 592.006 421.008C593.414 422.885 594.31 425.125 594.694 427.728L587.078 428.176C586.609 426.128 585.734 424.571 584.454 423.504C583.174 422.395 581.595 421.84 579.718 421.84C577.073 421.84 575.003 422.843 573.51 424.848C572.017 426.811 571.27 429.499 571.27 432.912C571.27 436.325 572.017 439.035 573.51 441.04C575.003 443.003 577.073 443.984 579.718 443.984C581.595 443.984 583.195 443.408 584.518 442.256C585.883 441.104 586.801 439.419 587.27 437.2L594.886 437.648C594.459 440.293 593.542 442.597 592.134 444.56C590.769 446.523 588.998 448.059 586.822 449.168C584.689 450.235 582.299 450.768 579.654 450.768ZM603.629 450V404.56H611.181V423.184L610.477 422.736C610.989 420.944 611.736 419.493 612.717 418.384C613.741 417.232 614.957 416.4 616.365 415.888C617.773 415.333 619.352 415.056 621.101 415.056C623.448 415.056 625.41 415.589 626.989 416.656C628.61 417.723 629.805 419.237 630.573 421.2C631.384 423.12 631.789 425.381 631.789 427.984V450H624.237V429.712C624.237 426.811 623.746 424.72 622.765 423.44C621.784 422.16 620.354 421.52 618.477 421.52C616.301 421.52 614.53 422.245 613.165 423.696C611.842 425.147 611.181 427.28 611.181 430.096V450H603.629ZM656.02 450.768C652.82 450.768 650.004 450.043 647.572 448.592C645.183 447.141 643.327 445.072 642.004 442.384C640.681 439.696 640.02 436.539 640.02 432.912C640.02 429.328 640.681 426.213 642.004 423.568C643.327 420.88 645.161 418.789 647.508 417.296C649.897 415.803 652.692 415.056 655.892 415.056C658.964 415.056 661.673 415.781 664.02 417.232C666.409 418.683 668.265 420.752 669.588 423.44C670.953 426.128 671.636 429.328 671.636 433.04V435.024H647.828C648.041 437.925 648.873 440.144 650.324 441.68C651.817 443.216 653.759 443.984 656.148 443.984C657.983 443.984 659.497 443.557 660.692 442.704C661.929 441.808 662.783 440.656 663.252 439.248L670.996 439.824C669.929 443.237 668.116 445.925 665.556 447.888C662.996 449.808 659.817 450.768 656.02 450.768ZM647.892 429.52H663.444C663.231 426.917 662.441 424.997 661.076 423.76C659.711 422.48 657.961 421.84 655.828 421.84C653.695 421.84 651.924 422.501 650.516 423.824C649.151 425.104 648.276 427.003 647.892 429.52ZM676.923 450V415.824H683.259L683.579 423.632L682.811 423.44C683.323 420.709 684.198 418.64 685.435 417.232C686.672 415.781 688.23 415.056 690.107 415.056C692.155 415.056 693.691 415.781 694.715 417.232C695.739 418.683 696.4 420.859 696.699 423.76H695.867C696.294 420.944 697.19 418.789 698.555 417.296C699.963 415.803 701.691 415.056 703.739 415.056C706.342 415.056 708.24 415.973 709.435 417.808C710.63 419.643 711.227 422.565 711.227 426.576V450H703.995V428.048C703.995 425.531 703.76 423.824 703.291 422.928C702.822 421.989 702.075 421.52 701.051 421.52C700.368 421.52 699.75 421.755 699.195 422.224C698.683 422.651 698.256 423.355 697.915 424.336C697.616 425.317 697.467 426.576 697.467 428.112V450H690.683V428.048C690.683 425.659 690.448 423.973 689.979 422.992C689.51 422.011 688.742 421.52 687.675 421.52C686.95 421.52 686.331 421.755 685.819 422.224C685.307 422.651 684.902 423.355 684.603 424.336C684.304 425.317 684.155 426.576 684.155 428.112V450H676.923ZM727.714 450.768C725.581 450.768 723.661 450.384 721.954 449.616C720.247 448.848 718.882 447.76 717.858 446.352C716.834 444.901 716.322 443.195 716.322 441.232C716.322 438.331 717.218 436.091 719.01 434.512C720.845 432.891 723.469 431.717 726.882 430.992L737.57 428.752C737.57 426.363 737.058 424.549 736.034 423.312C735.053 422.032 733.495 421.392 731.362 421.392C729.399 421.392 727.885 421.861 726.818 422.8C725.751 423.739 725.047 424.976 724.706 426.512L716.834 426.064C717.474 422.779 719.053 420.133 721.57 418.128C724.13 416.08 727.351 415.056 731.234 415.056C735.885 415.056 739.362 416.293 741.666 418.768C743.97 421.243 745.122 424.699 745.122 429.136V441.872C745.122 442.725 745.293 443.323 745.634 443.664C745.975 443.963 746.445 444.112 747.042 444.112H748.706V450C748.45 450.043 748.023 450.085 747.426 450.128C746.871 450.213 746.295 450.256 745.698 450.256C744.077 450.256 742.69 449.979 741.538 449.424C740.429 448.869 739.575 448.037 738.978 446.928C738.381 445.776 738.061 444.368 738.018 442.704H738.978C738.765 444.24 738.146 445.627 737.122 446.864C736.098 448.059 734.775 449.019 733.154 449.744C731.575 450.427 729.762 450.768 727.714 450.768ZM729.058 444.88C730.893 444.88 732.45 444.56 733.73 443.92C735.01 443.237 735.97 442.299 736.61 441.104C737.25 439.867 737.57 438.395 737.57 436.688V434.384L729.058 436.176C727.223 436.517 725.943 437.072 725.218 437.84C724.535 438.565 724.194 439.547 724.194 440.784C724.194 442.064 724.621 443.067 725.474 443.792C726.327 444.517 727.522 444.88 729.058 444.88ZM804.912 450L791.536 404.56H799.92L810.416 442.704H807.984L818.48 404.56H826.864L813.488 450H804.912ZM846.039 450V415.824H853.591V450H846.039ZM832.983 450V443.856H864.727V450H832.983ZM833.623 421.968V415.824H852.503V421.968H833.623ZM845.719 411.28V404.112H853.399V411.28H845.719ZM886.27 450.768C883.07 450.768 880.254 450.043 877.822 448.592C875.433 447.141 873.577 445.072 872.254 442.384C870.931 439.696 870.27 436.539 870.27 432.912C870.27 429.328 870.931 426.213 872.254 423.568C873.577 420.88 875.411 418.789 877.758 417.296C880.147 415.803 882.942 415.056 886.142 415.056C889.214 415.056 891.923 415.781 894.27 417.232C896.659 418.683 898.515 420.752 899.838 423.44C901.203 426.128 901.886 429.328 901.886 433.04V435.024H878.078C878.291 437.925 879.123 440.144 880.574 441.68C882.067 443.216 884.009 443.984 886.398 443.984C888.233 443.984 889.747 443.557 890.942 442.704C892.179 441.808 893.033 440.656 893.502 439.248L901.246 439.824C900.179 443.237 898.366 445.925 895.806 447.888C893.246 449.808 890.067 450.768 886.27 450.768ZM878.142 429.52H893.694C893.481 426.917 892.691 424.997 891.326 423.76C889.961 422.48 888.211 421.84 886.078 421.84C883.945 421.84 882.174 422.501 880.766 423.824C879.401 425.104 878.526 427.003 878.142 429.52ZM912.613 450L906.149 415.824H913.893L917.477 440.144L921.445 420.688H927.205L931.173 440.144L934.757 415.824H942.501L936.101 450H928.229L924.325 431.568L920.421 450H912.613ZM963.02 450.768C959.82 450.768 957.004 450.043 954.572 448.592C952.183 447.141 950.327 445.072 949.004 442.384C947.681 439.696 947.02 436.539 947.02 432.912C947.02 429.328 947.681 426.213 949.004 423.568C950.327 420.88 952.161 418.789 954.508 417.296C956.897 415.803 959.692 415.056 962.892 415.056C965.964 415.056 968.673 415.781 971.02 417.232C973.409 418.683 975.265 420.752 976.588 423.44C977.953 426.128 978.636 429.328 978.636 433.04V435.024H954.828C955.041 437.925 955.873 440.144 957.324 441.68C958.817 443.216 960.759 443.984 963.148 443.984C964.983 443.984 966.497 443.557 967.692 442.704C968.929 441.808 969.783 440.656 970.252 439.248L977.996 439.824C976.929 443.237 975.116 445.925 972.556 447.888C969.996 449.808 966.817 450.768 963.02 450.768ZM954.892 429.52H970.444C970.231 426.917 969.441 424.997 968.076 423.76C966.711 422.48 964.961 421.84 962.828 421.84C960.695 421.84 958.924 422.501 957.516 423.824C956.151 425.104 955.276 427.003 954.892 429.52ZM995.315 450V415.824H1001.08L1001.65 424.656H1001.08C1001.5 421.669 1002.4 419.451 1003.76 418C1005.17 416.549 1007.16 415.824 1009.72 415.824H1017.2V422.16H1010.16C1008.54 422.16 1007.2 422.459 1006.13 423.056C1005.06 423.653 1004.25 424.528 1003.7 425.68C1003.14 426.832 1002.87 428.283 1002.87 430.032V450H995.315ZM986.867 450V443.856H1013.43V450H986.867ZM986.867 421.968V415.824H999.731V421.968H986.867Z" fill="black"/>
</svg>
